
<svg xmlns="http://www.w3.org/2000/svg" version="1.1" xmlns:xlink="http://www.w3.org/1999/xlink" width="512" height="512" x="0" y="0" viewBox="0 0 24 24" style="enable-background:new 0 0 512 512" xml:space="preserve" class="">
  <style>
    /* Light mode */
    @media (prefers-color-scheme: light) {
      .fill-color { fill: #000000; }
    }
    /* Dark mode */
    @media (prefers-color-scheme: dark) {
      .fill-color { fill: #ffffff; }
    }
  </style>
  <g>
    <path d="M12 0C5.383 0 0 5.383 0 12s5.383 12 12 12 12-5.383 12-12S18.617 0 12 0Zm6.2 10.512-4.426 4.345a3.984 3.984 0 0 1-2.8 1.151 3.984 3.984 0 0 1-2.776-1.129l-1.899-1.867a1 1 0 1 1 1.402-1.426l1.893 1.861c.776.75 2.001.746 2.781-.018L16.8 9.085a.999.999 0 1 1 1.4 1.427Z" class="fill-color" opacity="1"></path>
  </g>
</svg>
